<?xml version="1.0" standalone="no"?>
<!DOCTYPE svg PUBLIC "-//W3C//DTD SVG 20010904//EN"
 "http://www.w3.org/TR/2001/REC-SVG-20010904/DTD/svg10.dtd">
<svg version="1.0" xmlns="http://www.w3.org/2000/svg"
 width="700.000000pt" height="700.000000pt" viewBox="0 0 700.000000 700.000000"
 preserveAspectRatio="xMidYMid meet">
<metadata>
Created by potrace 1.14, written by Peter Selinger 2001-2017
</metadata>
<g transform="translate(0.000000,700.000000) scale(0.100000,-0.100000)"
fill="#000000" stroke="none">
<path d="M5735 6984 c-50 -11 -457 -97 -520 -110 -11 -2 -43 -8 -71 -14 -28
-6 -63 -13 -78 -16 -15 -2 -78 -15 -139 -29 -62 -13 -125 -26 -142 -29 -28 -6
-104 -22 -280 -59 -38 -9 -83 -18 -100 -20 -16 -3 -95 -19 -175 -37 -80 -17
-188 -40 -240 -50 -52 -10 -183 -37 -290 -60 -201 -42 -277 -58 -320 -66 -14
-3 -68 -14 -120 -25 -156 -33 -616 -128 -750 -155 -69 -15 -133 -28 -143 -30
-16 -4 -34 -8 -87 -19 -14 -3 -36 -7 -50 -10 -14 -3 -81 -17 -150 -31 -69 -14
-134 -28 -145 -30 -11 -2 -119 -24 -240 -49 -388 -81 -649 -135 -670 -139
-370 -75 -439 -96 -501 -153 -109 -100 -146 -233 -108 -392 7 -32 15 -69 18
-82 2 -13 7 -35 10 -49 3 -14 8 -36 10 -50 5 -29 15 -73 56 -270 60 -286 76
-371 85 -455 3 -27 12 -102 20 -165 7 -63 16 -137 20 -165 3 -27 7 -66 10 -85
2 -19 7 -64 11 -100 3 -36 8 -68 10 -71 2 -4 4 -828 4 -1832 0 -1758 1 -1827
19 -1880 37 -108 104 -182 207 -229 l49 -23 2690 0 2690 0 57 27 c79 37 142
98 181 177 l32 66 0 1880 0 1880 -29 58 c-53 105 -157 184 -264 202 -24 4
-1149 7 -2501 7 l-2457 0 -18 66 c-10 37 -20 72 -22 77 -3 9 190 55 333 81 16
3 165 34 333 69 168 35 316 66 330 69 14 2 93 18 175 35 83 18 162 34 177 36
14 3 77 16 140 29 62 14 124 27 138 30 74 14 467 97 480 101 8 2 31 7 50 10
19 3 76 15 125 25 50 11 101 21 115 24 14 2 90 18 170 35 80 16 160 33 179 36
19 3 37 7 40 9 3 2 22 7 41 10 19 3 121 23 225 45 105 22 201 42 215 45 14 2
111 23 215 45 105 22 201 42 215 45 49 9 366 75 410 85 25 5 56 12 70 14 14 3
93 19 175 36 83 17 161 33 175 36 67 13 230 47 270 57 113 28 211 106 258 206
32 68 38 171 17 272 -12 55 -101 483 -110 530 -2 8 -13 62 -25 120 -12 58 -24
116 -26 130 -9 51 -65 149 -110 190 -95 87 -225 117 -369 84z m184 -243 c24
-13 50 -49 56 -79 2 -11 12 -62 24 -113 11 -52 22 -105 24 -119 3 -14 21 -101
41 -195 19 -93 38 -181 40 -195 3 -14 7 -36 11 -50 3 -14 7 -36 10 -49 2 -14
9 -49 15 -78 19 -89 -5 -143 -74 -167 l-38 -13 -46 50 c-26 27 -98 102 -160
166 -62 64 -233 239 -380 390 -147 151 -278 284 -291 297 l-23 22 53 11 c109
24 437 92 533 112 55 11 101 21 103 23 8 7 81 -2 102 -13z m-899 -250 c41 -43
220 -227 397 -408 178 -182 346 -354 374 -384 l50 -53 -158 -34 c-87 -18 -251
-52 -366 -76 l-207 -43 -283 290 c-155 160 -357 367 -449 461 -91 94 -165 173
-163 175 4 3 41 11 125 27 14 3 88 18 165 34 143 30 323 67 364 75 13 2 25 6
27 8 2 1 13 3 26 4 17 2 43 -19 98 -76z m-952 -160 c26 -26 171 -175 322 -330
403 -414 530 -545 527 -547 -1 -1 -126 -27 -277 -58 -151 -31 -302 -63 -335
-70 l-59 -14 -101 102 c-55 57 -239 246 -410 421 -170 175 -329 338 -352 362
-24 23 -42 43 -40 43 6 0 583 119 622 128 22 6 44 10 48 11 4 1 29 -21 55 -48z
m-789 -258 c263 -273 708 -728 740 -760 19 -18 33 -35 30 -37 -3 -4 -103 -26
-187 -42 -13 -3 -101 -21 -195 -40 -95 -20 -181 -38 -192 -40 -11 -2 -54 -10
-95 -19 l-75 -14 -50 53 c-27 30 -123 130 -211 223 -89 92 -181 188 -204 213
-47 50 -326 343 -379 398 -32 33 -33 36 -15 43 10 5 134 31 274 60 140 28 293
60 340 69 47 10 87 19 90 19 3 1 61 -56 129 -126z m-889 -225 c85 -89 175
-183 200 -209 25 -26 110 -116 190 -200 80 -84 189 -198 242 -253 103 -108
103 -107 31 -120 -14 -3 -80 -16 -147 -30 -66 -14 -132 -27 -146 -30 -14 -3
-36 -7 -50 -10 -14 -3 -81 -17 -150 -32 -69 -14 -128 -28 -132 -30 -6 -4 -90
79 -248 246 -28 30 -129 136 -223 235 -390 408 -417 437 -417 445 0 3 39 14
88 24 48 9 96 19 107 21 31 7 489 103 495 104 3 1 75 -72 160 -161z m-750
-335 c456 -478 574 -603 578 -613 1 -4 -17 -11 -40 -15 -24 -5 -45 -9 -48 -10
-12 -3 -68 -15 -95 -20 -41 -7 -88 -16 -412 -85 l-132 -28 -164 172 c-91 94
-179 187 -197 206 -18 19 -105 111 -194 204 -88 93 -189 198 -223 234 -65 68
-67 77 -26 114 18 16 62 30 149 48 199 39 489 101 493 106 5 5 67 -56 311
-313z m-582 -551 c184 -193 242 -255 239 -258 -1 -1 -48 -11 -105 -23 -96 -19
-106 -20 -163 -5 -36 9 -89 14 -130 12 -76 -3 -74 -5 -89 72 -5 25 -23 110
-40 190 -17 80 -40 190 -51 245 -10 55 -24 114 -29 130 -10 32 9 13 368 -363z
m5239 -922 c36 -22 55 -51 60 -96 l3 -31 -160 0 c-89 0 -165 -4 -170 -9 -4 -5
-52 -112 -105 -239 -53 -126 -109 -259 -125 -295 -188 -439 -294 -699 -292
-723 4 -44 29 -85 63 -103 27 -14 84 -16 408 -17 l376 -2 2 -301 2 -300 -2723
0 -2722 0 1 341 0 340 117 225 c64 124 141 274 172 334 31 60 61 115 67 122 6
8 8 14 4 14 -4 0 -3 6 2 13 10 11 39 67 252 480 l81 157 -202 0 -202 0 26 28
c14 15 33 39 43 55 l17 27 2487 0 c2444 0 2487 0 2518 -20z m-4957 -256 c0 -4
-45 -93 -99 -198 -55 -105 -147 -283 -204 -396 -58 -112 -109 -206 -114 -207
-5 -2 -9 179 -9 402 l0 405 213 0 c117 0 213 -3 213 -6z m5020 -564 l0 -530
-336 0 c-265 0 -335 3 -331 13 28 68 314 744 331 782 12 28 42 98 67 157 l44
108 112 0 112 0 1 -530z m-3830 -1712 c0 -223 -3 -288 -12 -289 -16 -1 -1556
-1 -1584 0 -20 1 -20 5 -20 284 0 155 3 284 7 287 4 3 368 5 808 5 l801 0 0
-287z m1888 0 l2 -288 -22 -1 c-117 -4 -1730 -1 -1734 4 -7 7 -8 552 -1 564 3
5 398 8 879 8 l873 0 3 -287z m1939 0 c2 -267 1 -288 -15 -289 -9 0 -415 -1
-902 -2 l-885 0 -3 289 -2 289 902 0 903 0 2 -287z m3 -796 c-1 -354 -2 -380
-20 -410 -40 -65 183 -60 -2699 -60 -1719 0 -2634 3 -2652 10 -16 5 -39 24
-51 41 -23 32 -23 35 -23 414 l-1 383 2723 0 2723 0 0 -378z"/>
<path d="M2317 3757 c-94 -185 -182 -357 -430 -840 -64 -125 -117 -239 -117
-253 0 -38 27 -82 63 -101 29 -15 71 -17 417 -17 354 0 388 1 423 18 48 23
100 75 121 121 10 20 105 215 213 433 295 600 403 821 403 827 0 3 -224 5
-497 5 l-498 0 -98 -193z m833 24 c0 -5 -15 -40 -34 -78 -19 -37 -136 -273
-259 -523 -176 -359 -228 -457 -248 -466 -32 -13 -645 -13 -641 1 3 11 144
289 286 565 53 102 133 258 178 347 l83 163 318 0 c186 0 317 -4 317 -9z"/>
<path d="M4514 3932 l-290 -2 -149 -293 c-81 -160 -178 -350 -215 -422 -276
-533 -293 -577 -254 -633 37 -53 43 -53 486 -52 442 1 443 1 515 56 30 23 57
71 136 244 14 30 52 113 86 183 34 71 61 130 61 132 0 2 27 61 61 132 33 70
70 148 81 173 11 25 36 79 56 120 19 41 45 98 57 125 13 28 42 90 64 139 23
49 40 90 39 92 -6 5 -432 9 -734 6z m486 -167 c0 -2 -29 -66 -65 -140 -36 -75
-65 -138 -65 -140 0 -1 -24 -54 -54 -116 -65 -140 -91 -195 -176 -379 -37 -80
-82 -175 -99 -212 -17 -37 -40 -72 -51 -78 -20 -11 -710 -15 -710 -4 0 6 172
345 448 887 l96 187 338 0 c186 0 338 -2 338 -5z"/>
</g>
</svg>
