<?xml version="1.0" encoding="iso-8859-1"?>
<svg height="40px" width="40px" version="1.1" id="Capa_1"
	xmlns="http://www.w3.org/2000/svg" xmlns:xlink="http://www.w3.org/1999/xlink"
	viewBox="0 0 55.086 55.086" xml:space="preserve">
	<g>
		<path style="fill:#fff;"
			d="M49.087,21.232H10.548c-0.04-0.433-0.157-0.839-0.344-1.209l37.819-7.843
		c0.747-0.154,1.39-0.592,1.808-1.229c0.419-0.638,0.565-1.4,0.409-2.148l-1.352-6.529C48.614,0.956,47.438,0,46.092,0
		c-0.194,0-0.39,0.02-0.582,0.059L5.421,8.372c-0.748,0.154-1.39,0.592-1.809,1.231c-0.419,0.638-0.564,1.4-0.409,2.146l1.355,6.528
		c0.061,0.291,0.73,6.062,0.73,6.062V52.23c0,1.574,1.281,2.856,2.857,2.856h40.941c1.576,0,2.857-1.282,2.857-2.856V24.089
		C51.945,22.514,50.664,21.232,49.087,21.232z M49.087,23.137c0.525,0,0.953,0.427,0.953,0.952v0.203h-2.588l-3.977,9.413
		c-0.184,0.35-0.184,0.721-0.004,1.021c0.182,0.3,0.512,0.472,0.906,0.472h5.662v4.755H7.193v-5.339L12.671,24l-3.163,0.002
		c0.266-0.249,0.482-0.542,0.654-0.864L49.087,23.137L49.087,23.137z M50.041,33.927h-5.283l3.537-8.366h1.746
		C50.041,25.561,50.041,33.927,50.041,33.927z M7.193,40.951h12.721v4.554H7.193V40.951z M20.914,40.951h13.88v4.554h-13.88V40.951z
		 M35.794,40.951h14.247v4.554H35.794V40.951z M7.193,31.844v-6.573l3.394-0.002L7.193,31.844z M45.897,1.923
		c0.065-0.014,0.13-0.02,0.195-0.02c0.448,0,0.839,0.318,0.931,0.758l1.354,6.528c0.051,0.249,0.003,0.503-0.137,0.716
		c-0.14,0.212-0.354,0.357-0.603,0.409l-0.339,0.07l0.097-0.094l-7.032-7.221C40.363,3.069,45.897,1.923,45.897,1.923z
		 M38.888,3.376l7.094,7.282l-5.776,1.197l-7.093-7.281C33.113,4.574,38.888,3.376,38.888,3.376z M31.64,4.88l7.092,7.281
		l-5.346,1.108l-7.092-7.281C26.294,5.988,31.64,4.88,31.64,4.88z M24.82,6.294l7.093,7.281l-5.89,1.222l-6.959-7.31
		C19.064,7.487,24.82,6.294,24.82,6.294z M17.599,7.79l6.961,7.311l-5.565,1.154l-6.96-7.311C12.035,8.944,17.599,7.79,17.599,7.79z
		 M5.113,10.827c0.024-0.064,0.055-0.124,0.092-0.182c0.14-0.213,0.354-0.358,0.604-0.409l4.762-0.988l6.961,7.31l-5.812,1.206
		C11.72,17.764,5.113,10.827,5.113,10.827z M5.402,12.971l4.853,5.096l-1.733,0.359c-0.408-0.174-0.855-0.272-1.328-0.272
		c-0.216,0-0.426,0.024-0.631,0.064c-0.065-0.098-0.115-0.208-0.14-0.329L5.402,12.971z M49.087,53.182H8.146
		c-0.525,0-0.953-0.428-0.953-0.952v-5.725h42.848v5.725C50.041,52.754,49.613,53.182,49.087,53.182z M14.968,35.064h5.396
		c0.579,0,1.211-0.364,1.521-0.903l4.998-10.159h-7.868l-4.903,9.559c-0.206,0.345-0.225,0.718-0.051,1.023
		C14.236,34.89,14.566,35.064,14.968,35.064z M19.792,25.271h5.054l-4.078,8.291c-0.061,0.107-0.279,0.233-0.402,0.233h-4.948
		C15.418,33.795,19.792,25.271,19.792,25.271z M29.252,35.197h5.871c0.582,0,1.213-0.369,1.521-0.92l4.717-10.135h-8.112
		l-4.859,9.552c-0.202,0.347-0.218,0.719-0.043,1.023C28.521,35.021,28.851,35.197,29.252,35.197z M34.027,25.412h5.343
		l-3.854,8.285c-0.06,0.105-0.272,0.23-0.394,0.23h-5.429C29.693,33.927,34.027,25.412,34.027,25.412z" />
	</g>
</svg>